<svg width="282" height="221" viewBox="0 0 282 221" fill="none" xmlns="http://www.w3.org/2000/svg">
<path d="M0.533203 61.8831V53.087C0.533203 45.7999 6.44034 39.8928 13.7274 39.8928H211.64V13.5045C211.64 1.75785 225.878 -4.1108 234.164 4.17458L278.144 48.1551C283.297 53.308 283.297 61.6621 278.144 66.8144L234.164 110.795C225.909 119.048 211.64 113.261 211.64 101.466V75.0772H13.7274C6.44034 75.0772 0.533203 69.1701 0.533203 61.8831ZM268.814 145.446H70.902V119.058C70.902 107.34 56.6842 101.422 48.378 109.728L4.39744 153.708C-0.754876 158.861 -0.754876 167.215 4.39744 172.368L48.378 216.348C56.6397 224.609 70.902 218.804 70.902 207.019V180.63H268.814C276.101 180.63 282.009 174.723 282.009 167.436V158.64C282.009 151.353 276.101 145.446 268.814 145.446Z" fill="black"/>
</svg>
